<svg width="36" height="36" viewBox="0 0 36 36" fill="none" xmlns="http://www.w3.org/2000/svg">
<rect width="36" height="36" rx="10" fill="#EAF4FB"/>
<path d="M26.3335 13.0003V15.017C26.3335 16.3337 25.5001 17.167 24.1835 17.167H21.3335V11.342C21.3335 10.417 22.0918 9.66699 23.0168 9.66699C23.9252 9.67533 24.7585 10.042 25.3585 10.642C25.9585 11.2503 26.3335 12.0837 26.3335 13.0003Z" stroke="#030303" stroke-miterlimit="10" stroke-linecap="round" stroke-linejoin="round"/>
<path d="M9.6665 13.8337V25.5003C9.6665 26.192 10.4498 26.5837 10.9998 26.167L12.4248 25.1003C12.7582 24.8503 13.2248 24.8837 13.5248 25.1837L14.9082 26.5753C15.2332 26.9003 15.7665 26.9003 16.0915 26.5753L17.4915 25.1753C17.7832 24.8837 18.2498 24.8503 18.5748 25.1003L19.9999 26.167C20.5499 26.5753 21.3332 26.1837 21.3332 25.5003V11.3337C21.3332 10.417 22.0832 9.66699 22.9998 9.66699H13.8332H12.9998C10.4998 9.66699 9.6665 11.1587 9.6665 13.0003V13.8337Z" stroke="#030303" stroke-miterlimit="10" stroke-linecap="round" stroke-linejoin="round"/>
<path d="M13 15.5H18" stroke="#030303" stroke-linecap="round" stroke-linejoin="round"/>
<path d="M13.625 18.833H17.375" stroke="#030303" stroke-linecap="round" stroke-linejoin="round"/>
</svg>
