<svg width="36" height="36" viewBox="0 0 36 36" fill="none" xmlns="http://www.w3.org/2000/svg">
<rect width="36" height="36" rx="10" fill="#EAF4FB"/>
<path d="M12.7055 18.208L10.0981 17.5995C10.0242 17.5818 9.9546 17.5494 9.89356 17.5041C9.83253 17.4589 9.78132 17.4017 9.74302 17.336C9.70473 17.2704 9.68016 17.1977 9.67079 17.1222C9.66142 17.0468 9.66745 16.9703 9.68852 16.8973L11.1327 12.0289C11.1674 11.895 11.2509 11.779 11.3667 11.7035L15.1772 9.74446C15.2694 9.69092 15.3748 9.66417 15.4815 9.66723H20.516C20.6241 9.66788 20.7297 9.69957 20.8203 9.75851L24.6331 11.7176C24.7483 11.7937 24.8316 11.9095 24.8672 12.0429L26.3113 16.9113C26.3323 16.9845 26.3383 17.0612 26.3288 17.1367C26.3192 17.2123 26.2945 17.2851 26.2559 17.3508C26.2174 17.4164 26.1659 17.4736 26.1046 17.5188C26.0433 17.5639 25.9735 17.5962 25.8994 17.6135L23.2803 18.222" stroke="#030303" stroke-miterlimit="10"/>
<path d="M12.7056 16.4551V23.4932C12.7048 23.9717 12.8872 24.4324 13.2154 24.7806C13.5436 25.1288 13.9926 25.3381 14.4704 25.3657C15.5971 25.5721 16.7398 25.6786 17.8853 25.684H18.0983C19.2442 25.6731 20.3869 25.5611 21.5132 25.3493C21.9905 25.3212 22.4389 25.1116 22.7666 24.7634C23.0943 24.4153 23.2764 23.9549 23.2756 23.4768V16.4551" stroke="#030303" stroke-miterlimit="10" stroke-linecap="round"/>
<path d="M20.1767 9.66699C20.1863 9.95994 20.1369 10.2518 20.0314 10.5253C19.9259 10.7988 19.7665 11.0482 19.5627 11.2588C19.3588 11.4694 19.1147 11.6369 18.8448 11.7513C18.575 11.8657 18.2849 11.9246 17.9918 11.9246C17.6987 11.9246 17.4086 11.8657 17.1387 11.7513C16.8688 11.6369 16.6247 11.4694 16.4209 11.2588C16.217 11.0482 16.0576 10.7988 15.9521 10.5253C15.8467 10.2518 15.7972 9.95994 15.8068 9.66699" stroke="#030303" stroke-miterlimit="10"/>
</svg>
