<svg width="36" height="36" viewBox="0 0 36 36" fill="none" xmlns="http://www.w3.org/2000/svg">
<rect width="36" height="36" rx="10" fill="#EAF4FB"/>
<path d="M26.3332 20.5003V15.5003C26.3332 11.3337 24.6665 9.66699 20.4998 9.66699H15.4998C11.3332 9.66699 9.6665 11.3337 9.6665 15.5003V20.5003C9.6665 24.667 11.3332 26.3337 15.4998 26.3337H20.4998C24.6665 26.3337 26.3332 24.667 26.3332 20.5003Z" stroke="#030303" stroke-linecap="round" stroke-linejoin="round"/>
<path d="M10.1001 22.2588H25.9001" stroke="#030303" stroke-linecap="round" stroke-linejoin="round"/>
<path d="M10.1001 13.9248H25.9001" stroke="#030303" stroke-linecap="round" stroke-linejoin="round"/>
<path d="M13.8081 22.2588V25.8838" stroke="#030303" stroke-linecap="round" stroke-linejoin="round"/>
<path d="M18 22.2588V26.3088" stroke="#030303" stroke-linecap="round" stroke-linejoin="round"/>
<path d="M22.1416 22.2588V25.9338" stroke="#030303" stroke-linecap="round" stroke-linejoin="round"/>
<path d="M13.8081 9.75879V13.3838" stroke="#030303" stroke-linecap="round" stroke-linejoin="round"/>
<path d="M18 9.75879V13.8088" stroke="#030303" stroke-linecap="round" stroke-linejoin="round"/>
<path d="M18 13.8584V23.0251" stroke="#030303" stroke-linecap="round" stroke-linejoin="round"/>
<path d="M22.1416 9.75879V13.4338" stroke="#030303" stroke-linecap="round" stroke-linejoin="round"/>
</svg>
