<svg width="36" height="36" viewBox="0 0 36 36" fill="none" xmlns="http://www.w3.org/2000/svg">
<rect width="36" height="36" rx="10" fill="#EAF4FB"/>
<mask id="mask0_2152_10803" style="mask-type:luminance" maskUnits="userSpaceOnUse" x="8" y="8" width="20" height="20">
<path d="M8.62598 8.62663H27.3743V27.375H8.62598V8.62663Z" fill="white"/>
</mask>
<g mask="url(#mask0_2152_10803)">
<path d="M15.689 22.4512C16.9717 23.3798 18.0066 24.0771 18.0066 24.0771C18.0066 24.0771 19.0346 23.3848 20.311 22.4602" stroke="#171717" stroke-miterlimit="10" stroke-linecap="round" stroke-linejoin="round"/>
<path d="M24.831 18.0633C25.1477 17.3632 25.3407 16.6216 25.2953 15.671C25.1878 13.4234 23.5451 11.5672 21.5331 11.5672C19.5535 11.5672 18.0004 13.2168 18.0004 13.2168C18.0004 13.2168 16.536 11.5672 14.4675 11.5672C12.4556 11.5672 10.8128 13.4234 10.7053 15.671C10.6599 16.6209 10.8533 17.3643 11.1695 18.0635" stroke="#171717" stroke-miterlimit="10" stroke-linecap="round" stroke-linejoin="round"/>
<path d="M20.3476 19.7544H15.6523V21.8916H20.3476V19.7544Z" stroke="#171717" stroke-miterlimit="10" stroke-linecap="round" stroke-linejoin="round"/>
<path d="M10.8383 19.7544H10.0562C9.46855 19.7544 8.99219 20.2328 8.99219 20.823C8.99219 21.4132 9.46855 21.8916 10.0562 21.8916H10.8383V19.7544Z" stroke="#171717" stroke-miterlimit="10" stroke-linecap="round" stroke-linejoin="round"/>
<path d="M25.9437 19.7544H25.1616V21.8916H25.9437C26.5314 21.8916 27.0077 21.4132 27.0077 20.823C27.0077 20.2328 26.5314 19.7544 25.9437 19.7544Z" stroke="#171717" stroke-miterlimit="10" stroke-linecap="round" stroke-linejoin="round"/>
<path d="M12.0419 23.9238C11.3772 23.9238 10.8384 23.3827 10.8384 22.7151V18.9312C10.8384 18.2636 11.3772 17.7224 12.0419 17.7224C12.7066 17.7224 13.2455 18.2636 13.2455 18.9312V22.7151C13.2455 23.3827 12.7066 23.9238 12.0419 23.9238Z" stroke="#171717" stroke-miterlimit="10" stroke-linecap="round" stroke-linejoin="round"/>
<path d="M14.4492 24.4336C13.7844 24.4336 13.2456 23.8924 13.2456 23.2248V18.4218C13.2456 17.7542 13.7844 17.2131 14.4492 17.2131C15.1139 17.2131 15.6527 17.7542 15.6527 18.4218V23.2248C15.6527 23.8924 15.1139 24.4336 14.4492 24.4336Z" stroke="#171717" stroke-miterlimit="10" stroke-linecap="round" stroke-linejoin="round"/>
<path d="M23.9584 17.7224C24.6232 17.7224 25.162 18.2636 25.162 18.9312V22.7151C25.162 23.3827 24.6232 23.9238 23.9584 23.9238C23.2938 23.9238 22.7549 23.3827 22.7549 22.7151V18.9312C22.7549 18.2636 23.2938 17.7224 23.9584 17.7224Z" stroke="#171717" stroke-miterlimit="10" stroke-linecap="round" stroke-linejoin="round"/>
<path d="M21.5517 17.2131C22.2164 17.2131 22.7553 17.7542 22.7553 18.4218V23.2248C22.7553 23.8924 22.2164 24.4336 21.5517 24.4336C20.887 24.4336 20.3481 23.8924 20.3481 23.2248V18.4218C20.3481 17.7542 20.887 17.2131 21.5517 17.2131Z" stroke="#171717" stroke-miterlimit="10" stroke-linecap="round" stroke-linejoin="round"/>
</g>
</svg>
