<svg width="36" height="36" viewBox="0 0 36 36" fill="none" xmlns="http://www.w3.org/2000/svg">
<rect width="36" height="36" rx="10" fill="#EAF4FB"/>
<mask id="mask0_2152_10918" style="mask-type:luminance" maskUnits="userSpaceOnUse" x="8" y="8" width="20" height="20">
<path d="M8.59326 8.59375H27.4067V27.4072H8.59326V8.59375Z" fill="white"/>
</mask>
<g mask="url(#mask0_2152_10918)">
<path d="M18.0908 17.4411L16.5048 16.0452C17.4224 15.0906 17.5603 13.5725 16.6201 12.6317L13.7607 9.77061C13.5834 9.59317 13.2958 9.59317 13.1185 9.77061V9.77065C12.9411 9.94809 12.9411 10.2358 13.1185 10.4132L15.3955 12.6916L14.6962 13.3913L12.4192 11.1129C12.2418 10.9355 11.9543 10.9355 11.777 11.1129C11.5996 11.2904 11.5996 11.5781 11.777 11.7556L14.054 14.0339L13.3547 14.7336L11.0777 12.4553C10.9003 12.2778 10.6128 12.2778 10.4354 12.4553C10.2581 12.6327 10.2581 12.9204 10.4354 13.0979L12.7125 15.3763L12.0132 16.076L9.73614 13.7976C9.55881 13.6202 9.27128 13.6202 9.09395 13.7976C8.91658 13.9751 8.91662 14.2627 9.09395 14.4402L11.9534 17.3012C12.8656 18.2139 14.4699 18.1024 15.4271 17.2655L16.6244 18.6943" stroke="#171717" stroke-miterlimit="10" stroke-linecap="round" stroke-linejoin="round"/>
<path d="M20.6787 19.7309L19.5559 18.7396L18.1021 20.4428L22.5963 25.7804C22.6262 25.8157 22.6559 25.8478 22.6863 25.8784C23.0441 26.2362 23.5365 26.4098 24.0484 26.3511C24.3409 26.3175 24.6203 26.2032 24.8525 26.0228C25.6477 25.4053 25.6986 24.2483 25.0071 23.5563C24.9766 23.5257 24.9445 23.4961 24.9093 23.466L23.138 21.9022" stroke="#171717" stroke-miterlimit="10" stroke-linecap="round" stroke-linejoin="round"/>
<path d="M13.8447 25.4302L21.03 17.0127C22.2706 17.6572 23.9336 17.5807 24.9367 16.577C26.2534 15.2595 27.0396 13.6766 27.0396 12.3427C27.0396 11.6241 26.8094 11.0141 26.3744 10.5786C25.742 9.94581 24.7662 9.7555 23.6267 10.0425C22.5291 10.3191 21.3758 11.0204 20.3796 12.0172C19.7713 12.6258 19.4363 13.4352 19.4363 14.296C19.4363 14.8139 19.7089 15.4703 19.9444 15.926L11.5318 23.1158C11.4966 23.1456 11.4647 23.1752 11.4342 23.2055C11.1243 23.5158 10.9536 23.9279 10.9536 24.3666C10.9536 24.8052 11.1243 25.2176 11.4342 25.5276C12.074 26.1679 13.1151 26.1679 13.7549 25.5276C13.7854 25.4973 13.8148 25.4653 13.8447 25.4302Z" stroke="#171717" stroke-miterlimit="10" stroke-linecap="round" stroke-linejoin="round"/>
<path d="M21.1183 15.0928C20.9923 14.8491 20.9258 14.5739 20.9258 14.2967C20.9258 13.834 21.1058 13.3991 21.4327 13.072C21.8164 12.6881 22.2314 12.3552 22.6512 12.09" stroke="#171717" stroke-miterlimit="10" stroke-linecap="round" stroke-linejoin="round"/>
<path d="M12.3389 24.4854L12.7114 24.1126" stroke="#171717" stroke-miterlimit="10" stroke-linecap="round" stroke-linejoin="round"/>
<path d="M23.6616 24.6709L23.2891 24.2982" stroke="#171717" stroke-miterlimit="10" stroke-linecap="round" stroke-linejoin="round"/>
</g>
</svg>
