<svg width="36" height="36" viewBox="0 0 36 36" fill="none" xmlns="http://www.w3.org/2000/svg">
<rect width="36" height="36" rx="10" fill="#EAF4FB"/>
<g clip-path="url(#clip0_2152_10409)">
<path d="M22.7733 24.6307H26.7464V17.4802C26.7464 16.4583 25.918 15.6299 24.896 15.6299C23.8741 15.6299 23.0457 16.4583 23.0457 17.4802V19.8579H12.9662V17.4802C12.9662 16.4583 12.1378 15.6299 11.1158 15.6299H11.1047C10.0828 15.6299 9.25439 16.4583 9.25439 17.4802V24.6307H22.2428" stroke="#030303" stroke-miterlimit="10"/>
<path d="M11.1045 12.1644V11.3028C11.1045 10.1491 12.0397 9.21387 13.1934 9.21387H22.8061C23.9598 9.21387 24.895 10.1491 24.895 11.3028V15.6303" stroke="#030303" stroke-miterlimit="10"/>
<path d="M11.1045 15.6298V12.6943" stroke="#030303" stroke-miterlimit="10"/>
<path d="M17.4683 18.2646H21.9553C22.5575 18.2646 23.0457 18.7528 23.0457 19.355V19.8582" stroke="#030303" stroke-miterlimit="10"/>
<path d="M12.9663 19.8582V19.355C12.9663 18.7528 13.4545 18.2646 14.0567 18.2646H16.9379" stroke="#171717" stroke-miterlimit="10"/>
<path d="M10.6413 24.6309L10.0857 26.0627C9.95085 26.4104 10.2074 26.7851 10.5803 26.7851C10.7993 26.7851 10.9957 26.6506 11.0749 26.4465L11.8037 24.6309" stroke="#171717" stroke-miterlimit="10"/>
<path d="M25.3789 24.6309L25.9345 26.0627C26.0693 26.4104 25.8128 26.7851 25.4399 26.7851C25.2209 26.7851 25.0245 26.6506 24.9453 26.4465L24.2466 24.6309" stroke="#171717" stroke-miterlimit="10"/>
<path d="M14.8157 14.2856C15.1086 14.2856 15.3462 14.0481 15.3462 13.7551C15.3462 13.4621 15.1086 13.2246 14.8157 13.2246C14.5227 13.2246 14.2852 13.4621 14.2852 13.7551C14.2852 14.0481 14.5227 14.2856 14.8157 14.2856Z" stroke="#171717" stroke-miterlimit="10"/>
<path d="M21.1814 14.2856C21.4744 14.2856 21.7119 14.0481 21.7119 13.7551C21.7119 13.4621 21.4744 13.2246 21.1814 13.2246C20.8884 13.2246 20.6509 13.4621 20.6509 13.7551C20.6509 14.0481 20.8884 14.2856 21.1814 14.2856Z" stroke="#171717" stroke-miterlimit="10"/>
<path d="M13.2241 10.042V10.5725" stroke="#171717" stroke-miterlimit="10"/>
<path d="M14.2852 10.042V10.5725" stroke="#171717" stroke-miterlimit="10"/>
</g>
<defs>
<clipPath id="clip0_2152_10409">
<rect width="20" height="20" fill="white" transform="translate(8 8)"/>
</clipPath>
</defs>
</svg>
