<svg width="36" height="36" viewBox="0 0 36 36" fill="none" xmlns="http://www.w3.org/2000/svg">
<rect width="36" height="36" rx="10" fill="#EAF4FB"/>
<path d="M24.6414 16.333H11.3081V22.9997C11.3081 25.4997 12.1414 26.333 14.6414 26.333H21.3081C23.8081 26.333 24.6414 25.4997 24.6414 22.9997V16.333Z" stroke="#030303" stroke-miterlimit="10" stroke-linecap="round" stroke-linejoin="round"/>
<path d="M25.9168 13.8337V14.667C25.9168 15.5837 25.4752 16.3337 24.2502 16.3337H11.7502C10.4752 16.3337 10.0835 15.5837 10.0835 14.667V13.8337C10.0835 12.917 10.4752 12.167 11.7502 12.167H24.2502C25.4752 12.167 25.9168 12.917 25.9168 13.8337Z" stroke="#030303" stroke-miterlimit="10" stroke-linecap="round" stroke-linejoin="round"/>
<path d="M17.7 12.1669H13.1C12.8166 11.8585 12.825 11.3835 13.125 11.0835L14.3083 9.9002C14.6167 9.59186 15.125 9.59186 15.4333 9.9002L17.7 12.1669Z" stroke="#030303" stroke-miterlimit="10" stroke-linecap="round" stroke-linejoin="round"/>
<path d="M22.8915 12.1669H18.2915L20.5582 9.9002C20.8665 9.59186 21.3748 9.59186 21.6832 9.9002L22.8665 11.0835C23.1665 11.3835 23.1748 11.8585 22.8915 12.1669Z" stroke="#030303" stroke-miterlimit="10" stroke-linecap="round" stroke-linejoin="round"/>
<path d="M15.4502 16.333V20.6163C15.4502 21.283 16.1835 21.6747 16.7419 21.3163L17.5252 20.7997C17.8085 20.6163 18.1669 20.6163 18.4419 20.7997L19.1835 21.2997C19.7335 21.6663 20.4752 21.2747 20.4752 20.608V16.333H15.4502Z" stroke="#030303" stroke-miterlimit="10" stroke-linecap="round" stroke-linejoin="round"/>
</svg>
