<svg width="36" height="36" viewBox="0 0 36 36" fill="none" xmlns="http://www.w3.org/2000/svg">
<rect width="36" height="36" rx="10" fill="#EAF4FB"/>
<mask id="mask0_2152_1351" style="mask-type:luminance" maskUnits="userSpaceOnUse" x="8" y="8" width="20" height="20">
<path d="M8.70947 8.71029H27.2902V27.291H8.70947V8.71029Z" fill="white"/>
</mask>
<g mask="url(#mask0_2152_1351)">
<path d="M17.9992 23.1387L16.1407 21.2956C15.7155 20.8704 15.7155 20.1811 16.1407 19.7559C16.5658 19.3307 17.2552 19.3307 17.6803 19.7559L17.9992 20.0748L18.3181 19.7559C18.7433 19.3307 19.4326 19.3307 19.8578 19.7559C20.2829 20.1811 20.2829 20.8704 19.8578 21.2956L17.9992 23.1387Z" stroke="#171717" stroke-miterlimit="10" stroke-linecap="round" stroke-linejoin="round"/>
<path d="M16.8747 12.1796C16.8747 13.1817 16.0623 13.9941 15.0601 13.9941C14.058 13.9941 13.2456 13.1817 13.2456 12.1796C13.2456 11.1775 14.058 10.3651 15.0601 10.3651C16.0623 10.3651 16.8747 11.1775 16.8747 12.1796Z" stroke="#171717" stroke-miterlimit="10" stroke-linecap="round" stroke-linejoin="round"/>
<path d="M22.7536 12.1796C22.7536 13.1817 21.9412 13.9941 20.939 13.9941C19.9369 13.9941 19.1245 13.1817 19.1245 12.1796C19.1245 11.1775 19.9369 10.3651 20.939 10.3651C21.9412 10.3651 22.7536 11.1775 22.7536 12.1796Z" stroke="#171717" stroke-miterlimit="10" stroke-linecap="round" stroke-linejoin="round"/>
<path d="M26.7455 15.7369C26.7455 16.5386 26.0956 17.1885 25.2939 17.1885C24.4922 17.1885 23.8423 16.5386 23.8423 15.7369C23.8423 14.9352 24.4922 14.2852 25.2939 14.2852C26.0956 14.2852 26.7455 14.9352 26.7455 15.7369Z" stroke="#171717" stroke-miterlimit="10" stroke-linecap="round" stroke-linejoin="round"/>
<path d="M12.1567 15.7369C12.1567 16.5386 11.5067 17.1885 10.705 17.1885C9.90334 17.1885 9.25342 16.5386 9.25342 15.7369C9.25342 14.9352 9.90334 14.2852 10.705 14.2852C11.5067 14.2852 12.1567 14.9352 12.1567 15.7369Z" stroke="#171717" stroke-miterlimit="10" stroke-linecap="round" stroke-linejoin="round"/>
<path d="M21.6852 25.6165L14.3269 25.6357C12.7174 25.6399 11.548 24.1074 11.9771 22.5561L12.773 19.6787C13.4231 17.3282 15.5621 15.7005 18.0009 15.7005C20.4379 15.7005 22.5756 17.3257 23.2275 19.6738L24.0217 22.5346C24.451 24.0813 23.2903 25.6123 21.6852 25.6165Z" stroke="#171717" stroke-miterlimit="10" stroke-linecap="round" stroke-linejoin="round"/>
</g>
</svg>
