<svg width="36" height="36" viewBox="0 0 36 36" fill="none" xmlns="http://www.w3.org/2000/svg">
<rect width="36" height="36" rx="10" fill="#EAF4FB"/>
<path d="M9.6665 9.66699H11.1165C12.0165 9.66699 12.7248 10.442 12.6498 11.3337L11.9582 19.6337C11.8415 20.992 12.9165 22.1587 14.2832 22.1587H23.1582C24.3582 22.1587 25.4082 21.1753 25.4998 19.9837L25.9498 13.7337C26.0498 12.3503 24.9998 11.2253 23.6082 11.2253H12.8498" stroke="#030303" stroke-miterlimit="10" stroke-linecap="round" stroke-linejoin="round"/>
<path d="M21.5417 26.3333C22.117 26.3333 22.5833 25.867 22.5833 25.2917C22.5833 24.7164 22.117 24.25 21.5417 24.25C20.9664 24.25 20.5 24.7164 20.5 25.2917C20.5 25.867 20.9664 26.3333 21.5417 26.3333Z" stroke="#030303" stroke-miterlimit="10" stroke-linecap="round" stroke-linejoin="round"/>
<path d="M14.8752 26.3333C15.4505 26.3333 15.9168 25.867 15.9168 25.2917C15.9168 24.7164 15.4505 24.25 14.8752 24.25C14.2999 24.25 13.8335 24.7164 13.8335 25.2917C13.8335 25.867 14.2999 26.3333 14.8752 26.3333Z" stroke="#030303" stroke-miterlimit="10" stroke-linecap="round" stroke-linejoin="round"/>
<path d="M15.5 14.667H25.5" stroke="#030303" stroke-miterlimit="10" stroke-linecap="round" stroke-linejoin="round"/>
</svg>
