<svg width="36" height="36" viewBox="0 0 36 36" fill="none" xmlns="http://www.w3.org/2000/svg">
<rect width="36" height="36" rx="10" fill="#EAF4FB"/>
<path d="M20.9252 10.3584H15.0752C13.0002 10.3584 12.5418 11.3917 12.2752 12.6584L11.3335 17.1667H24.6668L23.7252 12.6584C23.4585 11.3917 23.0002 10.3584 20.9252 10.3584Z" stroke="#030303" stroke-linecap="round" stroke-linejoin="round"/>
<path d="M26.3248 24.517C26.4164 25.492 25.6331 26.3337 24.6331 26.3337H23.0664C22.1664 26.3337 22.0414 25.9503 21.8831 25.4753L21.7164 24.9753C21.4831 24.292 21.3331 23.8337 20.1331 23.8337H15.8664C14.6664 23.8337 14.4914 24.3503 14.2831 24.9753L14.1164 25.4753C13.9581 25.9503 13.8331 26.3337 12.9331 26.3337H11.3664C10.3664 26.3337 9.58311 25.492 9.67478 24.517L10.1414 19.442C10.2581 18.192 10.4998 17.167 12.6831 17.167H23.3164C25.4998 17.167 25.7414 18.192 25.8581 19.442L26.3248 24.517Z" stroke="#030303" stroke-linecap="round" stroke-linejoin="round"/>
<path d="M11.3333 14.667H10.5" stroke="#030303" stroke-linecap="round" stroke-linejoin="round"/>
<path d="M25.4998 14.667H24.6665" stroke="#030303" stroke-linecap="round" stroke-linejoin="round"/>
<path d="M18 10.5V12.1667" stroke="#171717" stroke-width="1.5" stroke-linecap="round" stroke-linejoin="round"/>
<path d="M16.75 12.167H19.25" stroke="#171717" stroke-width="1.5" stroke-linecap="round" stroke-linejoin="round"/>
<path d="M13 20.5H15.5" stroke="#171717" stroke-width="1.5" stroke-linecap="round" stroke-linejoin="round"/>
<path d="M20.5 20.5H23" stroke="#171717" stroke-width="1.5" stroke-linecap="round" stroke-linejoin="round"/>
</svg>
