<svg width="36" height="36" viewBox="0 0 36 36" fill="none" xmlns="http://www.w3.org/2000/svg">
<rect width="36" height="36" rx="10" fill="#EAF4FB"/>
<path d="M15.525 26.0748L17.4667 24.4415C17.7584 24.1915 18.2417 24.1915 18.5334 24.4415L20.475 26.0748C20.925 26.2998 21.475 26.0748 21.6417 25.5915L22.0084 24.4831C22.1 24.2165 22.0084 23.8248 21.8084 23.6248L19.9167 21.7248C19.775 21.5915 19.6667 21.3248 19.6667 21.1331V18.7581C19.6667 18.4081 19.925 18.2415 20.25 18.3748L24.3417 20.1415C24.9834 20.4165 25.5084 20.0748 25.5084 19.3748V18.2998C25.5084 17.7415 25.0917 17.0998 24.575 16.8831L19.9167 14.8748C19.7834 14.8165 19.6667 14.6415 19.6667 14.4915V11.9915C19.6667 11.2081 19.0917 10.2831 18.3917 9.9248C18.1417 9.7998 17.85 9.7998 17.6 9.9248C16.9 10.2831 16.325 11.2165 16.325 11.9998V14.4998C16.325 14.6498 16.2084 14.8248 16.075 14.8831L11.425 16.8915C10.9084 17.0998 10.4917 17.7415 10.4917 18.2998V19.3748C10.4917 20.0748 11.0167 20.4165 11.6584 20.1415L15.75 18.3748C16.0667 18.2331 16.3334 18.4081 16.3334 18.7581V21.1331C16.3334 21.3248 16.225 21.5915 16.0917 21.7248L14.2 23.6248C14 23.8248 13.9084 24.2081 14 24.4831L14.3667 25.5915C14.5167 26.0748 15.0667 26.3081 15.525 26.0748Z" stroke="#030303" stroke-linecap="round" stroke-linejoin="round"/>
</svg>
