<svg width="36" height="36" viewBox="0 0 36 36" fill="none" xmlns="http://www.w3.org/2000/svg">
<rect width="36" height="36" rx="10" fill="#EAF4FB"/>
<path d="M14.6665 17.5C14.6665 18.1417 15.1665 18.6667 15.7748 18.6667H17.0248C17.5582 18.6667 17.9915 18.2083 17.9915 17.65C17.9915 17.0417 17.7248 16.825 17.3332 16.6833L15.3332 15.9833C14.9332 15.8417 14.6665 15.625 14.6665 15.0167C14.6665 14.4583 15.0998 14 15.6332 14H16.8832C17.4998 14.0083 17.9998 14.525 17.9998 15.1667" stroke="#030303" stroke-linecap="round" stroke-linejoin="round"/>
<path d="M16.3335 18.708V19.3247" stroke="#030303" stroke-linecap="round" stroke-linejoin="round"/>
<path d="M16.3335 13.3418V13.9918" stroke="#030303" stroke-linecap="round" stroke-linejoin="round"/>
<path d="M16.3248 22.9837C20.0021 22.9837 22.9832 20.0026 22.9832 16.3253C22.9832 12.648 20.0021 9.66699 16.3248 9.66699C12.6475 9.66699 9.6665 12.648 9.6665 16.3253C9.6665 20.0026 12.6475 22.9837 16.3248 22.9837Z" stroke="#030303" stroke-linecap="round" stroke-linejoin="round"/>
<path d="M18.8169 24.5663C19.5669 25.6247 20.7919 26.3163 22.1919 26.3163C24.4669 26.3163 26.3169 24.4663 26.3169 22.1913C26.3169 20.808 25.6336 19.583 24.5919 18.833" stroke="#030303" stroke-linecap="round" stroke-linejoin="round"/>
</svg>
