<svg width="36" height="36" viewBox="0 0 36 36" fill="none" xmlns="http://www.w3.org/2000/svg">
<rect width="36" height="36" rx="10" fill="#EAF4FB"/>
<path d="M11.5498 17.1835V21.3252C11.5498 22.8419 11.5498 22.8419 12.9831 23.8085L16.9248 26.0835C17.5165 26.4252 18.4831 26.4252 19.0748 26.0835L23.0165 23.8085C24.4498 22.8419 24.4498 22.8419 24.4498 21.3252V17.1835C24.4498 15.6669 24.4498 15.6669 23.0165 14.7002L19.0748 12.4252C18.4831 12.0835 17.5165 12.0835 16.9248 12.4252L12.9831 14.7002C11.5498 15.6669 11.5498 15.6669 11.5498 17.1835Z" stroke="#030303" stroke-linecap="round" stroke-linejoin="round"/>
<path d="M22.5832 14.3587V12.167C22.5832 10.5003 21.7498 9.66699 20.0832 9.66699H15.9165C14.2498 9.66699 13.4165 10.5003 13.4165 12.167V14.3003" stroke="#030303" stroke-linecap="round" stroke-linejoin="round"/>
<path d="M18.525 17.1588L19 17.9005C19.075 18.0171 19.2416 18.1338 19.3666 18.1671L20.2166 18.3838C20.7416 18.5171 20.8833 18.9671 20.5416 19.3838L19.9833 20.0588C19.9 20.1671 19.8333 20.3588 19.8416 20.4921L19.8916 21.3671C19.925 21.9088 19.5416 22.1838 19.0416 21.9838L18.225 21.6588C18.1 21.6088 17.8916 21.6088 17.7666 21.6588L16.95 21.9838C16.45 22.1838 16.0666 21.9005 16.1 21.3671L16.15 20.4921C16.1583 20.3588 16.0916 20.1588 16.0083 20.0588L15.45 19.3838C15.1083 18.9671 15.25 18.5171 15.775 18.3838L16.625 18.1671C16.7583 18.1338 16.925 18.0088 16.9916 17.9005L17.4666 17.1588C17.7666 16.7088 18.2333 16.7088 18.525 17.1588Z" stroke="#030303" stroke-linecap="round" stroke-linejoin="round"/>
</svg>
