<svg width="36" height="36" viewBox="0 0 36 36" fill="none" xmlns="http://www.w3.org/2000/svg">
<rect width="36" height="36" rx="10" fill="#EAF4FB"/>
<path d="M15.9165 19.4585C15.9165 20.2669 16.5415 20.9169 17.3082 20.9169H18.8748C19.5415 20.9169 20.0832 20.3502 20.0832 19.6419C20.0832 18.8835 19.7498 18.6085 19.2582 18.4335L16.7498 17.5585C16.2582 17.3835 15.9248 17.1169 15.9248 16.3502C15.9248 15.6502 16.4665 15.0752 17.1332 15.0752H18.6998C19.4665 15.0752 20.0915 15.7252 20.0915 16.5335" stroke="#030303" stroke-linecap="round" stroke-linejoin="round"/>
<path d="M18 14.25V21.75" stroke="#030303" stroke-linecap="round" stroke-linejoin="round"/>
<path d="M26.3332 18.0003C26.3332 22.6003 22.5998 26.3337 17.9998 26.3337C13.3998 26.3337 9.6665 22.6003 9.6665 18.0003C9.6665 13.4003 13.3998 9.66699 17.9998 9.66699" stroke="#030303" stroke-linecap="round" stroke-linejoin="round"/>
<path d="M22.1665 10.5V13.8333H25.4998" stroke="#030303" stroke-linecap="round" stroke-linejoin="round"/>
<path d="M26.3332 9.66699L22.1665 13.8337" stroke="#030303" stroke-linecap="round" stroke-linejoin="round"/>
</svg>
