<svg width="36" height="36" viewBox="0 0 36 36" fill="none" xmlns="http://www.w3.org/2000/svg">
<rect width="36" height="36" rx="10" fill="#EAF4FB"/>
<path d="M26.3332 18.8337V15.5003C26.3332 11.3337 24.6665 9.66699 20.4998 9.66699H15.4998C11.3332 9.66699 9.6665 11.3337 9.6665 15.5003V20.5003C9.6665 24.667 11.3332 26.3337 15.4998 26.3337H18.8332" stroke="#030303" stroke-linecap="round" stroke-linejoin="round"/>
<path d="M14.1084 20.0748L16.0917 17.4998C16.3751 17.1331 16.9001 17.0665 17.2667 17.3498L18.7918 18.5498C19.1584 18.8331 19.6834 18.7665 19.9667 18.4081L21.8918 15.9248" stroke="#030303" stroke-linecap="round" stroke-linejoin="round"/>
<path d="M24.2332 21.1832L24.4665 21.6582C24.5832 21.8915 24.8748 22.1082 25.1332 22.1582L25.4499 22.2082C26.3999 22.3665 26.6248 23.0665 25.9415 23.7582L25.6498 24.0499C25.4582 24.2499 25.3499 24.6332 25.4082 24.8999L25.4499 25.0749C25.7082 26.2249 25.0999 26.6665 24.0999 26.0665L23.8832 25.9415C23.6248 25.7915 23.2082 25.7915 22.9499 25.9415L22.7332 26.0665C21.7248 26.6749 21.1165 26.2249 21.3832 25.0749L21.4248 24.8999C21.4832 24.6332 21.3749 24.2499 21.1832 24.0499L20.8915 23.7582C20.2082 23.0665 20.4332 22.3665 21.3832 22.2082L21.6999 22.1582C21.9499 22.1165 22.2498 21.8915 22.3665 21.6582L22.5998 21.1832C23.0498 20.2749 23.7832 20.2749 24.2332 21.1832Z" stroke="#030303" stroke-linecap="round" stroke-linejoin="round"/>
</svg>
