<svg width="36" height="36" viewBox="0 0 36 36" fill="none" xmlns="http://www.w3.org/2000/svg">
<rect width="36" height="36" rx="10" fill="#EAF4FB"/>
<path d="M19.6665 21.3338C19.6665 22.8088 19.0248 24.1421 17.9998 25.0505C17.1165 25.8505 15.9498 26.3338 14.6665 26.3338C11.9082 26.3338 9.6665 24.0921 9.6665 21.3338C9.6665 19.0338 11.2332 17.0838 13.3498 16.5088C13.9248 17.9588 15.1582 19.0755 16.6832 19.4921C17.0998 19.6088 17.5415 19.6671 17.9998 19.6671C18.4582 19.6671 18.8998 19.6088 19.3165 19.4921C19.5415 20.0588 19.6665 20.6838 19.6665 21.3338Z" stroke="#030303" stroke-linecap="round" stroke-linejoin="round"/>
<path d="M23 14.667C23 15.317 22.875 15.942 22.65 16.5087C22.075 17.9587 20.8417 19.0753 19.3167 19.492C18.9 19.6087 18.4583 19.667 18 19.667C17.5417 19.667 17.1 19.6087 16.6833 19.492C15.1583 19.0753 13.925 17.9587 13.35 16.5087C13.125 15.942 13 15.317 13 14.667C13 11.9087 15.2417 9.66699 18 9.66699C20.7583 9.66699 23 11.9087 23 14.667Z" stroke="#030303" stroke-linecap="round" stroke-linejoin="round"/>
<path d="M26.3333 21.3338C26.3333 24.0921 24.0917 26.3338 21.3333 26.3338C20.05 26.3338 18.8833 25.8505 18 25.0505C19.025 24.1421 19.6667 22.8088 19.6667 21.3338C19.6667 20.6838 19.5417 20.0588 19.3167 19.4921C20.8417 19.0755 22.075 17.9588 22.65 16.5088C24.7667 17.0838 26.3333 19.0338 26.3333 21.3338Z" stroke="#030303" stroke-linecap="round" stroke-linejoin="round"/>
</svg>
