<svg width="36" height="36" viewBox="0 0 36 36" fill="none" xmlns="http://www.w3.org/2000/svg">
<rect width="36" height="36" rx="10" fill="#EAF4FB"/>
<path d="M24.0831 14.6002V18.8919C24.0831 21.4586 22.6165 22.5586 20.4165 22.5586H13.0915C12.7165 22.5586 12.3581 22.5253 12.0248 22.4503C11.8165 22.4169 11.6165 22.3586 11.4331 22.2919C10.1831 21.8253 9.4248 20.7419 9.4248 18.8919V14.6002C9.4248 12.0336 10.8915 10.9336 13.0915 10.9336H20.4165C22.2831 10.9336 23.6248 11.7253 23.9831 13.5336C24.0415 13.8669 24.0831 14.2086 24.0831 14.6002Z" stroke="#030303" stroke-miterlimit="10" stroke-linecap="round" stroke-linejoin="round"/>
<path d="M26.5842 17.0998V21.3915C26.5842 23.9582 25.1176 25.0582 22.9176 25.0582H15.5925C14.9759 25.0582 14.4176 24.9749 13.9342 24.7915C12.9426 24.4249 12.2675 23.6665 12.0259 22.4499C12.3592 22.5249 12.7175 22.5582 13.0925 22.5582H20.4176C22.6176 22.5582 24.0842 21.4582 24.0842 18.8915V14.5998C24.0842 14.2082 24.0509 13.8582 23.9842 13.5332C25.5676 13.8665 26.5842 14.9832 26.5842 17.0998Z" stroke="#030303" stroke-miterlimit="10" stroke-linecap="round" stroke-linejoin="round"/>
<path d="M16.7484 18.9498C17.9634 18.9498 18.9484 17.9648 18.9484 16.7498C18.9484 15.5348 17.9634 14.5498 16.7484 14.5498C15.5333 14.5498 14.5483 15.5348 14.5483 16.7498C14.5483 17.9648 15.5333 18.9498 16.7484 18.9498Z" stroke="#030303" stroke-miterlimit="10" stroke-linecap="round" stroke-linejoin="round"/>
<path d="M11.9829 14.917V18.5837" stroke="#030303" stroke-miterlimit="10" stroke-linecap="round" stroke-linejoin="round"/>
<path d="M21.5181 14.917V18.5837" stroke="#030303" stroke-miterlimit="10" stroke-linecap="round" stroke-linejoin="round"/>
</svg>
